<svg width="17" height="17" viewBox="0 0 17 17" fill="none" xmlns="http://www.w3.org/2000/svg">
<path d="M8.49992 8.91502L11.5051 11.9202L10.5034 12.9219L9.20825 11.6274V15.5834H7.79159V11.626L6.49645 12.9219L5.49472 11.9202L8.49992 8.91502ZM8.49992 1.41675C11.0452 1.41675 13.1426 3.33464 13.4257 5.80413C15.0774 6.25575 16.2916 7.76738 16.2916 9.56258C16.2916 11.5946 14.7358 13.2633 12.7503 13.4425L12.7506 12.0165C13.9517 11.8444 14.8749 10.8113 14.8749 9.56258C14.8749 8.19337 13.765 7.08341 12.3958 7.08341C12.2479 7.08341 12.103 7.09638 11.9628 7.12166C12.0144 6.88097 12.0416 6.6312 12.0416 6.37508C12.0416 4.41908 10.4559 2.83341 8.49992 2.83341C6.54391 2.83341 4.95825 4.41908 4.95825 6.37508C4.95825 6.6312 4.98544 6.88097 5.03762 7.12117C4.89685 7.09638 4.75198 7.08341 4.60409 7.08341C3.23488 7.08341 2.12492 8.19337 2.12492 9.56258C2.12492 10.767 2.98371 11.7707 4.12232 11.995L4.24995 12.0167L4.2502 13.4425C2.26443 13.2638 0.708252 11.5949 0.708252 9.56258C0.708252 7.76738 1.92251 6.25575 3.57451 5.80424C3.85723 3.33464 5.9546 1.41675 8.49992 1.41675Z" fill="#777575"/>
</svg>
